<?xml version="1.0" standalone="no"?>
<!DOCTYPE svg PUBLIC "-//W3C//DTD SVG 20010904//EN"
 "http://www.w3.org/TR/2001/REC-SVG-20010904/DTD/svg10.dtd">
<svg version="1.0" xmlns="http://www.w3.org/2000/svg"
 width="512.000000pt" height="512.000000pt" viewBox="0 0 512.000000 512.000000"
 preserveAspectRatio="xMidYMid meet">
<metadata>
Created by potrace 1.11, written by Peter Selinger 2001-2013
</metadata>
<g transform="translate(0.000000,512.000000) scale(0.100000,-0.100000)"
fill="#000000" stroke="none">
<path d="M2433 4736 c-29 -7 -53 -12 -53 -10 0 2 -26 -9 -57 -22 -133 -59
-254 -172 -317 -298 -51 -100 -67 -190 -68 -381 -1 -152 -2 -158 -16 -125 -68
155 -98 205 -167 274 -130 129 -284 189 -470 182 -269 -11 -485 -179 -572
-446 -21 -65 -26 -232 -8 -305 8 -33 78 -226 155 -430 78 -203 146 -381 150
-395 5 -14 22 -59 38 -100 16 -41 56 -147 89 -235 59 -155 111 -290 156 -405
21 -54 22 -68 23 -585 1 -291 4 -546 7 -565 9 -56 52 -164 90 -222 72 -113
206 -216 337 -261 l65 -22 910 -2 c958 -3 974 -2 1079 42 130 55 259 175 319
297 30 63 66 177 83 268 3 14 8 34 11 45 4 11 8 25 9 30 1 6 42 172 92 370 49
198 93 387 96 420 4 33 9 74 13 90 9 45 10 650 1 728 -18 147 -82 262 -203
366 -27 22 -173 100 -198 105 -13 3 -87 19 -99 22 -5 1 -28 2 -53 3 -34 1 -47
6 -52 19 -9 24 -67 105 -95 133 -66 66 -168 128 -263 160 -24 8 -86 14 -157
14 -111 0 -118 1 -118 20 -1 11 -1 164 -1 341 -1 393 -11 459 -90 590 -85 140
-243 256 -396 290 -56 12 -219 12 -270 0z m260 -329 c67 -31 123 -88 155 -157
l25 -55 0 -690 0 -690 -128 -282 -129 -282 -265 1 c-176 0 -281 -4 -311 -12
-93 -24 -110 -39 -359 -310 l-50 -55 -1 50 c-3 102 -8 123 -67 280 -259 680
-388 1019 -408 1070 -63 161 -128 333 -136 360 -64 207 86 415 296 410 87 -2
155 -29 216 -87 44 -41 67 -85 118 -221 65 -176 281 -741 290 -762 5 -11 42
-108 83 -215 l73 -195 78 0 77 -1 0 796 c0 623 3 806 13 845 49 186 256 283
430 202z m693 -1232 c64 -19 128 -74 161 -139 21 -40 26 -66 26 -121 0 -74 -2
-80 -358 -850 l-37 -80 -12 36 c-30 86 -89 152 -176 195 -48 25 -69 29 -167
32 -62 2 -113 8 -113 14 0 5 37 89 81 186 45 97 96 209 113 247 18 39 61 135
97 215 54 121 72 153 117 197 77 77 164 99 268 68z m550 -330 c103 -31 174
-121 182 -234 l4 -67 -120 -264 c-178 -394 -178 -394 -249 -547 -41 -89 -78
-155 -99 -176 -108 -108 -277 -111 -381 -7 -62 63 -82 113 -80 200 2 73 6 82
126 345 68 149 134 295 148 325 110 241 163 339 204 374 72 61 168 80 265 51z
m187 -647 c0 -158 -9 -268 -29 -363 -19 -86 -15 -71 -59 -245 -20 -80 -38
-152 -40 -160 -2 -8 -20 -80 -40 -160 -20 -80 -38 -152 -40 -160 -16 -77 -59
-229 -71 -253 -23 -44 -103 -117 -154 -141 -45 -20 -54 -20 -935 -21 l-890 0
-51 23 c-60 27 -123 89 -156 152 -22 44 -23 54 -28 370 -3 179 -3 371 0 426
l5 101 56 59 c31 33 69 73 84 89 154 170 193 208 245 233 l55 27 420 0 c417
-1 420 -1 467 -23 54 -27 113 -88 136 -141 9 -22 16 -66 16 -111 0 -65 -4 -82
-28 -123 -36 -60 -102 -115 -162 -133 -35 -10 -118 -14 -320 -15 l-274 -2 0
-39 0 -39 298 3 297 3 57 28 c31 15 72 44 92 64 32 33 36 35 42 17 81 -236
302 -333 512 -225 88 45 122 94 233 339 56 125 123 272 149 327 25 55 59 130
76 166 16 37 31 65 33 63 2 -2 4 -63 4 -136z"/>
</g>
</svg>
